0
SECTION
2
HEADER
9
$INSUNITS
70
4
9
$ACADVER
1
AC1014
9
$HANDSEED
5
FFFF
0
ENDSEC
0
SECTION
2
TABLES
0
TABLE
2
VPORT
5
8
100
AcDbSymbolTable
0
ENDTAB
0
TABLE
2
LTYPE
5
5
100
AcDbSymbolTable
0
LTYPE
5
14
100
AcDbSymbolTableRecord
100
AcDbLinetypeTableRecord
2
BYBLOCK
70
0
0
LTYPE
5
15
100
AcDbSymbolTableRecord
100
AcDbLinetypeTableRecord
2
BYLAYER
70
0
0
ENDTAB
0
TABLE
2
LAYER
5
2
100
AcDbSymbolTable
70
2
0
LAYER
5
50
100
AcDbSymbolTableRecord
100
AcDbLayerTableRecord
2
0
70
0
6
CONTINUOUS
0
ENDTAB
0
TABLE
2
STYLE
5
3
100
AcDbSymbolTable
70
1
0
STYLE
5
11
100
AcDbSymbolTableRecord
100
AcDbTextStyleTableRecord
2
STANDARD
70
0
0
ENDTAB
0
TABLE
2
VIEW
5
6
100
AcDbSymbolTable
70
0
0
ENDTAB
0
TABLE
2
UCS
5
7
100
AcDbSymbolTable
70
0
0
ENDTAB
0
TABLE
2
APPID
5
9
100
AcDbSymbolTable
70
2
0
APPID
5
12
100
AcDbSymbolTableRecord
100
AcDbRegAppTableRecord
2
ACAD
70
0
0
ENDTAB
0
TABLE
2
DIMSTYLE
5
A
100
AcDbSymbolTable
70
1
0
ENDTAB
0
TABLE
2
BLOCK_RECORD
5
1
100
AcDbSymbolTable
70
1
0
BLOCK_RECORD
5
1F
100
AcDbSymbolTableRecord
100
AcDbBlockTableRecord
2
*MODEL_SPACE
0
BLOCK_RECORD
5
1B
100
AcDbSymbolTableRecord
100
AcDbBlockTableRecord
2
*PAPER_SPACE
0
ENDTAB
0
ENDSEC
0
SECTION
2
BLOCKS
0
BLOCK
5
20
100
AcDbEntity
100
AcDbBlockBegin
2
*MODEL_SPACE
0
ENDBLK
5
21
100
AcDbEntity
100
AcDbBlockEnd
0
BLOCK
5
1C
100
AcDbEntity
100
AcDbBlockBegin
2
*PAPER_SPACE
0
ENDBLK
5
1D
100
AcDbEntity
100
AcDbBlockEnd
0
ENDSEC
0
SECTION
2
ENTITIES
0
LINE
5
100
100
AcDbEntity
8
0
100
AcDbLine
10
43.04778684233824
20
-43.047786842338311
30
0
11
0
21
0
31
0
0
LINE
5
101
100
AcDbEntity
8
0
100
AcDbLine
10
0
20
0
30
0
11
-1009.343145750508
21
1.4210854715202004e-13
31
0
0
LINE
5
102
100
AcDbEntity
8
0
100
AcDbLine
10
-1009.343145750508
20
1.4210854715202004e-13
30
0
11
-1043.3431457505085
21
-34.000000000000128
31
0
0
SPLINE
5
103
100
AcDbEntity
8
0
100
AcDbSpline
70
0
71
3
72
8
73
4
74
0
42
0.000000001
43
0.0000000001
44
0.0000000001
40
-1.5707963267948797
40
-1.5707963267948797
40
-1.5707963267948797
40
-1.5707963267948797
40
-0.78539816339746304
40
-0.78539816339746304
40
-0.78539816339746304
40
-0.78539816339746304
10
-1043.3431457505085
20
-34.000000000000341
30
0
10
-1045.4375408529015
20
-37.015928947446426
30
0
10
-1047.5190390206146
20
-40.031857894892369
30
0
10
-1049.0000000000007
20
-43.047786842338382
30
0
0
SPLINE
5
104
100
AcDbEntity
8
0
100
AcDbSpline
70
0
71
3
72
8
73
4
74
0
42
0.000000001
43
0.0000000001
44
0.0000000001
40
-0.78539816339736546
40
-0.78539816339736546
40
-0.78539816339736546
40
-0.78539816339736546
40
-1.1063194955468283e-29
40
-1.1063194955468283e-29
40
-1.1063194955468283e-29
40
-1.1063194955468283e-29
10
-1049.0000000000011
20
-43.047786842337956
30
0
10
-1050.4809609793872
20
-46.063715789783828
30
0
10
-1051.3431457505085
20
-49.079644737229842
30
0
10
-1051.3431457505085
20
-52.095573684675927
30
0
0
LINE
5
105
100
AcDbEntity
8
0
100
AcDbLine
10
-1051.3431457505085
20
-52.095573684675919
30
0
11
-1051.343145750508
21
-520.09557368467711
31
-6.3182320950560467e-41
0
SPLINE
5
106
100
AcDbEntity
8
0
100
AcDbSpline
70
0
71
3
72
8
73
4
74
0
42
0.000000001
43
0.0000000001
44
0.0000000001
40
1.3011813848607016e-14
40
1.3011813848607016e-14
40
1.3011813848607016e-14
40
1.3011813848607016e-14
40
0.78539816339749191
40
0.78539816339749191
40
0.78539816339749191
40
0.78539816339749191
10
-1051.3431457505055
20
-520.09557368467711
30
0
10
-1051.3431457505055
20
-523.11150263212346
30
0
10
-1050.4809609793838
20
-526.12743157956982
30
0
10
-1048.9999999999977
20
-529.14336052701617
30
0
0
SPLINE
5
107
100
AcDbEntity
8
0
100
AcDbSpline
70
0
71
3
72
8
73
4
74
0
42
0.000000001
43
0.0000000001
44
0.0000000001
40
0.78539816339749502
40
0.78539816339749502
40
0.78539816339749502
40
0.78539816339749502
40
1.5707963267949001
40
1.5707963267949001
40
1.5707963267949001
40
1.5707963267949001
10
-1048.9999999999975
20
-529.14336052701606
30
0
10
-1047.5190390206114
20
-532.15928947446218
30
0
10
-1045.4375408528986
20
-535.1752184219082
30
0
10
-1043.3431457505053
20
-538.19114736935433
30
0
0
LINE
5
108
100
AcDbEntity
8
0
100
AcDbLine
10
-1043.3431457505053
20
-538.19114736935433
30
0
11
-1009.3431457505053
21
-572.19114736935478
31
0
0
LINE
5
109
100
AcDbEntity
8
0
100
AcDbLine
10
-1009.3431457505053
20
-572.19114736935478
30
0
11
-5.6843418860808015e-13
21
-572.19114736935467
31
0
0
LINE
5
110
100
AcDbEntity
8
0
100
AcDbLine
10
-5.6843418860808015e-13
20
-572.19114736935467
30
0
11
43.047786842338382
21
-529.14336052701572
31
0
0
ARC
5
111
100
AcDbEntity
8
0
100
AcDbCircle
10
48.704641091830737
20
-534.80021477650814
30
3.612722603337419e-44
40
8.0000000000000462
210
2.789044477473684e-31
220
2.7890444774737068e-31
230
1
100
AcDbArc
50
45.00000000000022
51
134.99999999999966
0
LINE
5
112
100
AcDbEntity
8
0
100
AcDbLine
10
54.361495341323121
20
-529.14336052701572
30
-3.1554436208840486e-30
11
97.409282183661503
21
-572.1911473693541
31
0
0
LINE
5
113
100
AcDbEntity
8
0
100
AcDbLine
10
97.409282183661503
20
-572.1911473693541
30
0
11
598.7524279341693
21
-572.19114736935387
31
0
0
LINE
5
114
100
AcDbEntity
8
0
100
AcDbLine
10
598.7524279341693
20
-572.19114736935387
30
0
11
598.7524279341693
21
6.3948846218409017e-13
31
9.2432641571035795e-41
0
LINE
5
115
100
AcDbEntity
8
0
100
AcDbLine
10
598.7524279341693
20
6.3948846218409017e-13
30
9.2432641571035795e-41
11
97.409282183661503
21
2.8421709430404007e-13
31
0
0
LINE
5
116
100
AcDbEntity
8
0
100
AcDbLine
10
97.409282183661503
20
2.8421709430404007e-13
30
0
11
54.361495341322986
21
-43.047786842338311
31
0
0
ARC
5
117
100
AcDbEntity
8
0
100
AcDbCircle
10
48.704641091830609
20
-37.390932592845914
30
-8.3202096319286014e-45
40
8.0000000000000036
210
9.9860880007935936e-46
220
4.7221036282822697e-46
230
1
100
AcDbArc
50
225.00000000000014
51
314.99999999999989
0
ENDSEC
0
SECTION
2
OBJECTS
0
DICTIONARY
5
C
100
AcDbDictionary
3
ACAD_GROUP
350
D
3
ACAD_MLINESTYLE
350
17
0
DICTIONARY
5
D
100
AcDbDictionary
0
DICTIONARY
5
1A
330
C
100
AcDbDictionary
0
DICTIONARY
5
17
100
AcDbDictionary
0
ENDSEC
0
EOF
