0
SECTION
2
HEADER
9
$INSUNITS
70
4
9
$ACADVER
1
AC1014
9
$HANDSEED
5
FFFF
0
ENDSEC
0
SECTION
2
TABLES
0
TABLE
2
VPORT
5
8
100
AcDbSymbolTable
0
ENDTAB
0
TABLE
2
LTYPE
5
5
100
AcDbSymbolTable
0
LTYPE
5
14
100
AcDbSymbolTableRecord
100
AcDbLinetypeTableRecord
2
BYBLOCK
70
0
0
LTYPE
5
15
100
AcDbSymbolTableRecord
100
AcDbLinetypeTableRecord
2
BYLAYER
70
0
0
ENDTAB
0
TABLE
2
LAYER
5
2
100
AcDbSymbolTable
70
2
0
LAYER
5
50
100
AcDbSymbolTableRecord
100
AcDbLayerTableRecord
2
0
70
0
6
CONTINUOUS
0
ENDTAB
0
TABLE
2
STYLE
5
3
100
AcDbSymbolTable
70
1
0
STYLE
5
11
100
AcDbSymbolTableRecord
100
AcDbTextStyleTableRecord
2
STANDARD
70
0
0
ENDTAB
0
TABLE
2
VIEW
5
6
100
AcDbSymbolTable
70
0
0
ENDTAB
0
TABLE
2
UCS
5
7
100
AcDbSymbolTable
70
0
0
ENDTAB
0
TABLE
2
APPID
5
9
100
AcDbSymbolTable
70
2
0
APPID
5
12
100
AcDbSymbolTableRecord
100
AcDbRegAppTableRecord
2
ACAD
70
0
0
ENDTAB
0
TABLE
2
DIMSTYLE
5
A
100
AcDbSymbolTable
70
1
0
ENDTAB
0
TABLE
2
BLOCK_RECORD
5
1
100
AcDbSymbolTable
70
1
0
BLOCK_RECORD
5
1F
100
AcDbSymbolTableRecord
100
AcDbBlockTableRecord
2
*MODEL_SPACE
0
BLOCK_RECORD
5
1B
100
AcDbSymbolTableRecord
100
AcDbBlockTableRecord
2
*PAPER_SPACE
0
ENDTAB
0
ENDSEC
0
SECTION
2
BLOCKS
0
BLOCK
5
20
100
AcDbEntity
100
AcDbBlockBegin
2
*MODEL_SPACE
0
ENDBLK
5
21
100
AcDbEntity
100
AcDbBlockEnd
0
BLOCK
5
1C
100
AcDbEntity
100
AcDbBlockBegin
2
*PAPER_SPACE
0
ENDBLK
5
1D
100
AcDbEntity
100
AcDbBlockEnd
0
ENDSEC
0
SECTION
2
ENTITIES
0
LINE
5
100
100
AcDbEntity
8
0
100
AcDbLine
10
-1082.2503028476633
20
-376.81911473694498
30
0
11
-1082.2503028476629
21
-380.43822947386377
31
-3.4261186933356047e-39
0
LINE
5
101
100
AcDbEntity
8
0
100
AcDbLine
10
-1082.2503028476629
20
-380.43822947386377
30
-3.4261186933356047e-39
11
-1083.350302847663
21
-380.43822947387059
31
0
0
LINE
5
102
100
AcDbEntity
8
0
100
AcDbLine
10
-1083.350302847663
20
-380.43822947387059
30
0
11
-1083.3503028476632
21
-409.44951850158952
31
8.5652967333390119e-40
0
LINE
5
103
100
AcDbEntity
8
0
100
AcDbLine
10
-1083.3503028476632
20
-409.44951850158952
30
8.5652967333390119e-40
11
-1083.8503028476628
21
-409.44951850158952
31
1.2325948903183355e-32
0
SPLINE
5
104
100
AcDbEntity
8
0
100
AcDbSpline
70
0
71
3
72
14
73
10
74
0
42
0.000000001
43
0.0000000001
44
0.0000000001
40
0
40
0
40
0
40
0
40
0.0096301581681791544
40
0.0096301581681791544
40
0.0096301581681791544
40
0.038562891277546613
40
0.038562891277546613
40
0.038562891277546613
40
0.063890320671592504
40
0.063890320671592504
40
0.063890320671592504
40
0.063890320671592504
10
-1083.8503028476628
20
-409.44951850158895
30
0
10
-1083.8182023204379
20
-409.44951850158895
30
0
10
-1083.8195683953861
20
-409.49154273482458
30
0
10
-1083.814618597841
20
-409.51615274208331
30
0
10
-1083.7997474847375
20
-409.59009075632991
30
0
10
-1083.8024975933799
20
-409.61834349602918
30
0
10
-1083.8012257406067
20
-409.67918353531564
30
0
10
-1083.8001123732249
20
-409.73244230604899
30
0
10
-1083.800302847661
20
-409.79378734620752
30
0
10
-1083.800302847661
20
-409.8573442107961
30
0
0
LINE
5
105
100
AcDbEntity
8
0
100
AcDbLine
10
-1083.800302847661
20
-409.8573442107961
30
0
11
-1083.800302847661
21
-418.25734421079545
31
-1.0278356080006814e-38
0
LINE
5
106
100
AcDbEntity
8
0
100
AcDbLine
10
-1083.800302847661
20
-418.25734421079545
30
-1.0278356080006814e-38
11
2.9842794901924208e-12
21
-418.25734421079744
31
0
0
LINE
5
107
100
AcDbEntity
8
0
100
AcDbLine
10
2.9842794901924208e-12
20
-418.25734421079744
30
0
11
0
21
0
31
1.7987123140011925e-38
0
LINE
5
108
100
AcDbEntity
8
0
100
AcDbLine
10
0
20
0
30
1.7987123140011925e-38
11
-1083.8503028476639
21
-4.4408920985006262e-15
31
0
0
LINE
5
109
100
AcDbEntity
8
0
100
AcDbLine
10
-1083.8503028476639
20
-4.4408920985006262e-15
30
0
11
-1083.8503028476639
21
-27.400000000000013
31
4.8528009767467943e-63
0
LINE
5
110
100
AcDbEntity
8
0
100
AcDbLine
10
-1083.8503028476639
20
-27.400000000000013
30
4.8528009767467943e-63
11
-1082.2503028476635
21
-27.399999999993192
31
0
0
LINE
5
111
100
AcDbEntity
8
0
100
AcDbLine
10
-1082.2503028476635
20
-27.399999999993192
30
0
11
-1082.2503028476642
21
-31.01911473694517
31
3.4261186933356047e-39
0
LINE
5
112
100
AcDbEntity
8
0
100
AcDbLine
10
-1082.2503028476642
20
-31.01911473694517
30
3.4261186933356047e-39
11
-1085.8694175845997
21
-31.019114736944609
31
-2.2209473525359775e-29
0
LINE
5
113
100
AcDbEntity
8
0
100
AcDbLine
10
-1085.8694175845997
20
-31.019114736944609
30
-2.2209473525359775e-29
11
-1085.8694175845997
21
-28.019114736944495
31
1.290638557645424e-66
0
LINE
5
114
100
AcDbEntity
8
0
100
AcDbLine
10
-1085.8694175845997
20
-28.019114736944495
30
1.290638557645424e-66
11
-1114.8694175845994
21
-28.019114736945134
31
1.0610179175171525e-28
0
LINE
5
115
100
AcDbEntity
8
0
100
AcDbLine
10
-1114.8694175845994
20
-28.019114736945134
30
1.0610179175171525e-28
11
-1114.8694175845988
21
-377.06911473694549
31
-4.2826483666695059e-39
0
ARC
5
116
100
AcDbEntity
8
0
100
AcDbCircle
10
-1112.119417584599
20
-377.06911473694538
30
-9.9842515583143216e-44
40
2.7499999999999147
210
-1.5572903724196562e-39
220
-1.5218384652113248e-41
230
1
100
AcDbArc
50
180
51
270.00000000000472
0
LINE
5
117
100
AcDbEntity
8
0
100
AcDbLine
10
-1112.1194175845988
20
-379.81911473694532
30
-4.1366965820504433e-41
11
-1085.8694175845988
21
-379.8191147369451
31
-1.917918075818585e-28
0
LINE
5
118
100
AcDbEntity
8
0
100
AcDbLine
10
-1085.8694175845988
20
-379.8191147369451
30
-1.917918075818585e-28
11
-1085.8694175845988
21
-376.81911473694498
31
1.290638557645424e-66
0
LINE
5
119
100
AcDbEntity
8
0
100
AcDbLine
10
-1085.8694175845988
20
-376.81911473694498
30
1.290638557645424e-66
11
-1082.2503028476633
21
-376.81911473694498
31
0
0
ENDSEC
0
SECTION
2
OBJECTS
0
DICTIONARY
5
C
100
AcDbDictionary
3
ACAD_GROUP
350
D
3
ACAD_MLINESTYLE
350
17
0
DICTIONARY
5
D
100
AcDbDictionary
0
DICTIONARY
5
1A
330
C
100
AcDbDictionary
0
DICTIONARY
5
17
100
AcDbDictionary
0
ENDSEC
0
EOF
